<svg xmlns="http://www.w3.org/2000/svg" width="31" height="31" viewBox="0 0 31 31">
  <g id="Instagram_link" transform="translate(0.5 0.5)">
    <circle id="Ellipse_5" data-name="Ellipse 5" cx="15" cy="15" r="15" fill="none" stroke="#393939" stroke-width="1" opacity="0.304"/>
    <path id="Path_4" data-name="Path 4" d="M22.825,13.1h-8.4A1.424,1.424,0,0,0,13,14.525V23a1.424,1.424,0,0,0,1.425,1.425H22.75A1.424,1.424,0,0,0,24.175,23V14.525A1.363,1.363,0,0,0,22.825,13.1ZM20.95,18.725a2.325,2.325,0,0,1-4.65,0,2.4,2.4,0,0,1,.225-1.05,2.246,2.246,0,0,1,4.05,0A1.792,1.792,0,0,1,20.95,18.725Zm2.025,3.825a.592.592,0,0,1-.6.6H14.95a.592.592,0,0,1-.6-.6V17.675h.975a4.426,4.426,0,0,0-.15,1.05,3.45,3.45,0,0,0,6.9,0,4.426,4.426,0,0,0-.15-1.05H22.9l.075,4.875Zm0-6.675a.592.592,0,0,1-.6.6h-.9a.592.592,0,0,1-.6-.6V14.9a.564.564,0,0,1,.375-.525H22.3a.592.592,0,0,1,.6.6l.075.9Z" transform="translate(-3.625 -3.65)" fill="#393939"/>
  </g>
</svg>
