<svg id="Vivasvat_logo" xmlns="http://www.w3.org/2000/svg" width="52" height="50.071" viewBox="0 0 52 50.071">
  <path id="Path_6" data-name="Path 6" d="M2879.39,702.419c2.729.8,4.773.8,7.116-.716a6.066,6.066,0,0,1,3.807-.965,4.14,4.14,0,0,0-3.288-.5c-2.292.493-3.321.22-6.413-1.29-2.624-1.282-4.133-1.734-5.9-1.276l11.958-9.485-14.247,5.349a4.473,4.473,0,0,1,.991-4.5c2.073-1.9,3.093-3.624,2.909-6.353a5.654,5.654,0,0,1,1.036-3.688,3.977,3.977,0,0,0-2.088,2.519c-.7,2.177-1.459,2.908-4.347,4.761-2.508,1.609-3.661,2.665-4.112,4.453h0L2864.3,675.7l-2.414,15.015c-.451-1.788-1.6-2.845-4.112-4.453-2.888-1.853-3.645-2.584-4.348-4.761a3.977,3.977,0,0,0-2.088-2.519,5.654,5.654,0,0,1,1.036,3.688c-.184,2.73.836,4.452,2.909,6.353a4.494,4.494,0,0,1,.986,4.517l-.031.049-14.547-5.461,11.945,9.475a4.71,4.71,0,0,1-4.406,1.3c-2.729-.8-4.773-.8-7.116.716a6.063,6.063,0,0,1-3.806.965,4.138,4.138,0,0,0,3.287.5c2.292-.493,3.321-.22,6.413,1.29,2.684,1.311,3.989,1.6,5.883,1.283l.16-.041-12.1,9.717,14.329-5.38a4.457,4.457,0,0,1-1,4.485c-2.073,1.9-3.093,3.624-2.909,6.354a5.652,5.652,0,0,1-1.036,3.689,3.978,3.978,0,0,0,2.089-2.519c.7-2.177,1.459-2.908,4.347-4.761,2.508-1.609,3.661-2.665,4.112-4.453l2.414,15.015,2.505-15.015h0c.451,1.789,1.605,2.845,4.112,4.453,2.888,1.853,3.644,2.584,4.347,4.761a3.98,3.98,0,0,0,2.089,2.519,5.653,5.653,0,0,1-1.037-3.689c.185-2.73-.835-4.452-2.908-6.354a4.472,4.472,0,0,1-.992-4.5l14.506,5.446-12.054-9.561A4.781,4.781,0,0,1,2879.39,702.419Zm-15.077,8.515a10.2,10.2,0,1,1,10.488-10.195A10.345,10.345,0,0,1,2864.313,710.934Z" transform="translate(-2838.313 -675.704)" fill="#393939"/>
  <path id="Path_7" data-name="Path 7" d="M2956.518,783.5a8.855,8.855,0,1,0,9.106,8.851A8.981,8.981,0,0,0,2956.518,783.5Zm.967,3.367,1.09-.972a.113.113,0,0,1,.148,0l1.069.9a.107.107,0,0,1,.028.13.121.121,0,0,0-.008.016.178.178,0,0,1-.047.072l-.131.116c-.271.24-.552.489-.834.728a.25.25,0,0,1-.157.048.241.241,0,0,1-.146-.043c-.264-.211-.518-.421-.788-.645l-.221-.184a.106.106,0,0,1,0-.163Zm-1.4,0a.11.11,0,0,1,.1-.092.113.113,0,0,1,.117.063,2.475,2.475,0,0,0,2.187,1.455,2.55,2.55,0,0,0,1.642-.449,3.584,3.584,0,0,0,.366-.271.268.268,0,0,1,.193-.074.247.247,0,0,1,.167.1l.159.192.443.529.234.279a.1.1,0,0,1,.024.085.106.106,0,0,1-.049.074l-.157.1c-.113.075-.219.146-.335.21l-.08.043-.027.014-.055.028-.038.019-.06.029-.051.024-.02.009a4.014,4.014,0,0,1-1.676.378,3.911,3.911,0,0,1-1.109-.162,2.774,2.774,0,0,1-1.794-1.4A1.91,1.91,0,0,1,2956.081,786.871Zm5.878,8.2a2.39,2.39,0,0,1-2.194,1.39h-.03a2.731,2.731,0,0,1-1.1-.235,1.553,1.553,0,0,1-.72-.682,2.75,2.75,0,0,1-.359-1.158.106.106,0,0,1,.023-.075c0-.088,0-.177,0-.264a1.445,1.445,0,0,1,.082-.373c.016-.052.032-.1.045-.152a.111.111,0,0,1,.124-.081l.055.008a.111.111,0,0,1,.094.088l.011.063c.008.045.016.088.025.13a1.144,1.144,0,0,0,.959.916,1.841,1.841,0,0,0,.389.043,2.208,2.208,0,0,0,1.847-.983,1.924,1.924,0,0,0,.209-1.175,2.765,2.765,0,0,0-.136-.617.9.9,0,0,0-1.469-.39,4.8,4.8,0,0,0-.7.814,2.01,2.01,0,0,1-1.391.942,3.153,3.153,0,0,1-.7-.007c-.094-.008-.19-.016-.285-.02.033.074.063.145.092.217a2.861,2.861,0,0,1,.26,1.315,3.038,3.038,0,0,1-.334,1.21,1.859,1.859,0,0,1-1.1.85,4.019,4.019,0,0,1-1.329.226h-.023a3.8,3.8,0,0,1-1.351-.242.112.112,0,0,1-.041-.027,3.433,3.433,0,0,1-1.271-.884,4.346,4.346,0,0,1-1.148-2.557,4.578,4.578,0,0,1,.016-.792c.009-.112.018-.229.023-.341a.176.176,0,0,1,.023-.075l0-.007a.113.113,0,0,1,.111-.068.111.111,0,0,1,.1.081c.026.1.051.2.075.293.054.215.105.419.171.621a3.923,3.923,0,0,0,1.006,1.7,2.3,2.3,0,0,0,1.2.605,2.98,2.98,0,0,0,1.6-.056,1.931,1.931,0,0,0,.879-.624.916.916,0,0,0,.1-.924.959.959,0,0,0-.8-.562,2.329,2.329,0,0,0-1.129.1.116.116,0,0,1-.091,0,.111.111,0,0,1-.058-.067l-.519-1.732a.107.107,0,0,1,.027-.105.113.113,0,0,1,.107-.031l.183.043c.119.029.232.055.343.08a2.085,2.085,0,0,0,1.263-.07c.332-.136.493-.3.54-.556a.334.334,0,0,0-.182-.4,1.864,1.864,0,0,0-1.664-.1c-.235.093-.469.2-.695.313-.1.047-.2.1-.3.142-.029.013-.057.028-.094.047l-.067.034a.113.113,0,0,1-.15-.045l-.742-1.345a.106.106,0,0,1-.008-.084.109.109,0,0,1,.056-.064l.173-.085c.121-.061.247-.124.375-.178a4.393,4.393,0,0,1,2.266-.426,6.373,6.373,0,0,1,.961.188,1.5,1.5,0,0,1,1.121,1.352,1.942,1.942,0,0,1-1.013,1.927c-.077.053-.157.1-.246.158l.106.041a4.562,4.562,0,0,0,.643.214.7.7,0,0,0,.652-.241,4.94,4.94,0,0,0,.486-.581c.08-.106.156-.219.23-.328.1-.152.21-.31.33-.456a2.289,2.289,0,0,1,1.677-.794,2.365,2.365,0,0,1,1.994.853,2.922,2.922,0,0,1,.766,2.039A4.322,4.322,0,0,1,2961.959,795.073Z" transform="translate(-2930.562 -767.319)" fill="#393939"/>
</svg>
